<svg width="419" height="497" viewBox="0 0 419 497" fill="none" xmlns="http://www.w3.org/2000/svg">
<path d="M203.66 355.479C207.299 357.513 211.733 357.513 215.371 355.478L412.856 245.061C416.65 242.939 419 238.933 419 234.587V146.428C419 137.263 409.141 131.481 401.142 135.955L215.375 239.864C211.734 241.9 207.297 241.9 203.657 239.862L145.965 207.575C137.966 203.099 128.105 208.881 128.105 218.047V306.203C128.105 310.55 130.456 314.557 134.25 316.678L203.66 355.479Z" fill="white"/>
<path d="M229.041 5.91705C216.91 -0.866714 202.128 -0.867218 189.997 5.91571L31.0929 94.7639C22.9258 99.3304 22.8951 111.072 31.0382 115.681L109.342 160.002C112.989 162.066 117.449 162.078 121.107 160.034L203.664 113.898C207.303 111.864 211.736 111.865 215.374 113.899L297.435 159.781C301.074 161.816 305.51 161.816 309.149 159.78L387.927 115.716C396.117 111.135 396.117 99.3491 387.926 94.769L229.041 5.91705Z" fill="white"/>
<path d="M215.374 383.099C211.736 385.133 207.303 385.133 203.664 383.1L109.542 330.495C105.747 328.374 103.396 324.367 103.396 320.02V190.749C103.396 186.402 101.045 182.395 97.251 180.275L17.855 135.894C9.8562 131.423 0 137.205 0 146.369L0 361.406C0 375.895 7.83483 389.251 20.4814 396.32L189.999 491.087C202.129 497.869 216.909 497.868 229.039 491.086L398.521 396.324C411.166 389.254 419 375.899 419 361.411V289.717C419 280.553 409.143 274.771 401.144 279.243L215.374 383.099Z" fill="white"/>
</svg>
